<svg width="21" height="21" viewBox="0 0 21 21" fill="none" xmlns="http://www.w3.org/2000/svg">
<path d="M20.0459 20.0459C19.2928 20.7991 18.0717 20.7991 17.3185 20.0459L10.904 13.6314C10.6809 13.4083 10.3191 13.4083 10.0959 13.6314L3.68144 20.0459C2.92829 20.7991 1.70718 20.7991 0.954027 20.0459C0.200873 19.2928 0.200873 18.0717 0.954027 17.3185L7.3685 10.904C7.59165 10.6809 7.59165 10.3191 7.3685 10.0959L0.954026 3.68144C0.200871 2.92828 0.200872 1.70718 0.954027 0.954026C1.70718 0.200872 2.92828 0.200873 3.68144 0.954027L10.0959 7.36849C10.3191 7.59165 10.6809 7.59165 10.904 7.36849L17.3185 0.954026C18.0717 0.200872 19.2928 0.200871 20.0459 0.954026C20.7991 1.70718 20.7991 2.92828 20.0459 3.68144L13.985 9.74235C13.5666 10.1608 13.5666 10.8392 13.985 11.2576L20.0459 17.3185C20.7991 18.0717 20.7991 19.2928 20.0459 20.0459Z" fill="white"/>
</svg>
