<svg width="20" height="20" viewBox="0 0 20 20" fill="none" xmlns="http://www.w3.org/2000/svg">
<g clip-path="url(#clip0_1854_5734)">
<path d="M19.2678 7.55743L12.9469 1.23577C12.1646 0.455759 11.105 0.017746 10.0003 0.017746C8.89554 0.017746 7.83589 0.455759 7.05359 1.23577L0.732754 7.55743C0.499775 7.78892 0.315062 8.06435 0.189323 8.36776C0.0635835 8.67116 -0.000681193 8.99651 0.000254207 9.32493V17.5058C0.000254207 18.1688 0.263646 18.8047 0.732487 19.2735C1.20133 19.7424 1.83721 20.0058 2.50025 20.0058H17.5003C18.1633 20.0058 18.7992 19.7424 19.268 19.2735C19.7369 18.8047 20.0003 18.1688 20.0003 17.5058V9.32493C20.0012 8.99651 19.9369 8.67116 19.8112 8.36776C19.6854 8.06435 19.5007 7.78892 19.2678 7.55743ZM12.5003 18.3391H7.50026V15.0608C7.50026 14.3977 7.76365 13.7618 8.23249 13.293C8.70133 12.8242 9.33721 12.5608 10.0003 12.5608C10.6633 12.5608 11.2992 12.8242 11.768 13.293C12.2369 13.7618 12.5003 14.3977 12.5003 15.0608V18.3391ZM18.3336 17.5058C18.3336 17.7268 18.2458 17.9387 18.0895 18.095C17.9332 18.2513 17.7213 18.3391 17.5003 18.3391H14.1669V15.0608C14.1669 13.9557 13.7279 12.8959 12.9465 12.1145C12.1651 11.3331 11.1053 10.8941 10.0003 10.8941C8.89519 10.8941 7.83538 11.3331 7.05398 12.1145C6.27258 12.8959 5.83359 13.9557 5.83359 15.0608V18.3391H2.50025C2.27924 18.3391 2.06728 18.2513 1.911 18.095C1.75472 17.9387 1.66692 17.7268 1.66692 17.5058V9.32493C1.66769 9.10408 1.75541 8.89242 1.91109 8.73577L8.23192 2.4166C8.70167 1.94904 9.33748 1.68655 10.0003 1.68655C10.663 1.68655 11.2988 1.94904 11.7686 2.4166L18.0894 8.73827C18.2445 8.89431 18.3322 9.10495 18.3336 9.32493V17.5058Z" fill="#1A1E27"/>
</g>
<defs>
<clipPath id="clip0_1854_5734">
<rect width="20" height="20" fill="white"/>
</clipPath>
</defs>
</svg>
