<svg width="27" height="27" viewBox="0 0 27 27" fill="none" xmlns="http://www.w3.org/2000/svg">
<path d="M27 13.5C27 14.5651 26.1365 15.4286 25.0714 15.4286H16C15.6844 15.4286 15.4286 15.6844 15.4286 16V25.0714C15.4286 26.1365 14.5651 27 13.5 27C12.4349 27 11.5714 26.1365 11.5714 25.0714V16C11.5714 15.6844 11.3156 15.4286 11 15.4286H1.92857C0.863449 15.4286 0 14.5651 0 13.5C0 12.4349 0.863451 11.5714 1.92857 11.5714H11C11.3156 11.5714 11.5714 11.3156 11.5714 11V1.92857C11.5714 0.863452 12.4349 0 13.5 0C14.5651 0 15.4286 0.863451 15.4286 1.92857V10.5C15.4286 11.0917 15.9083 11.5714 16.5 11.5714H25.0714C26.1365 11.5714 27 12.4349 27 13.5Z" fill="white"/>
</svg>
